<svg width="421" height="512" viewBox="0 0 421 512" fill="none" xmlns="http://www.w3.org/2000/svg">
<rect width="421" height="512" rx="32" fill="white"/>
<path d="M25.0143 99.5002C25.0143 110.65 28.1543 63.4793 26.4033 76.0914C23.3351 98.1898 26.1447 137.896 26.8909 148.498C27.4686 156.706 29.1 165.499 29.8463 180.003C30.091 184.759 31.0802 207.185 30.8363 239.687C30.7387 252.703 29.6025 259.067 29.8463 267.43C30.0062 272.915 29.6025 297.844 29.8463 336.5C29.9456 352.254 29.6025 361.681 29.8463 373C29.9859 379.483 29.6025 414.715 29.8463 445C30.0005 464.153 32.0554 477.93 34.5158 483.605C38.4374 492.649 62.0821 488.437 69.2267 489.183C75.4842 489.836 81.2921 491.392 92.1014 491.894C110.847 492.766 117.732 490.417 124.153 488.946C133.363 486.837 146.311 488.437 181.664 489.183C195.614 489.477 206.393 489.441 220.904 488.695C234.993 487.971 249.719 486.486 268.183 486.227C277.903 486.091 287.667 488.437 303.899 489.183C313.844 489.64 323.634 491.392 332.005 491.651C338.649 491.856 344.321 487.964 350.239 485.991C356.598 483.871 363.531 482.053 369.449 479.836C375.753 477.476 382.239 473.689 388.172 469.5C393.223 465.933 392.612 444.842 393.358 402.129C393.602 388.169 393.115 369.598 391.888 357.407C391.168 350.253 390.159 337.532 388.933 313.948C388.171 299.307 388.682 271.982 388.438 257.182C388.072 234.993 386.229 223.188 385.482 193.723C385.268 185.242 384.248 176.922 384.492 166.341C384.636 160.108 385.726 135.221 385.97 99.764C386.117 78.3689 388.179 63.5975 388.438 49.094C388.578 41.228 384.751 36.9843 382.542 34.5239C373.123 24.0343 358.051 29.2465 346 28.5002C338.162 28.0149 324.113 28.1034 316 26.8769C298.685 24.2591 289 26.8769 279.5 26.8769C270.86 26.8769 264 25.5 256.5 25.5C245.879 25.5 236.036 24.1727 227.887 23.4265C216.336 22.3688 196.641 21.2173 184.066 20.4711C175.83 19.9824 169.037 18.2619 141.767 18.0034C131.02 17.9014 124 18.0031 118.5 18.0031C111.195 18.0031 101.918 18.7538 96 19.5C90.0021 20.2563 86 20.471 74.5 20.4711C63 20.4712 60.5 20.4711 51 23.4265C43.9394 25.623 25.0143 23.4265 25.0143 99.5002Z" stroke="black" stroke-width="8" stroke-linejoin="round"/>
<path d="M38.252 375.672C56.4085 400.382 62.5534 409.316 69.5331 419.463C75.0797 427.527 79.9679 433.318 85.5737 439.701C90.1731 444.938 92.7215 449.814 95.6317 454.686C99.723 461.534 104.316 465.546 107.806 470.047C110.519 474.547 112.061 477.918 113.603 480.16C114.379 481.289 115.145 482.402 118.252 484.672" stroke="black" stroke-width="8" stroke-linecap="round" stroke-linejoin="round"/>
<path d="M40.252 330.672C60.7995 355.742 72.1456 369.762 75.2012 373.65C81.0286 381.065 87.5044 388.732 92.8661 396.156C105.97 414.299 117.83 429.655 123.832 438.453C129.925 447.385 134.019 452.423 138.055 457.825C141.71 462.12 145.55 465.829 148.818 470.304C149.781 471.426 150.923 472.532 153.252 473.672" stroke="black" stroke-width="8" stroke-linecap="round" stroke-linejoin="round"/>
<path d="M34.252 277.672C54.573 305.837 58.3933 309.591 62.6163 314.651C71.2097 324.949 77.5637 333.62 86.5736 345.251C91.9602 352.205 99.0125 361.008 105.192 368.565C112.537 377.548 117.838 385.082 127.613 397.096C134.015 404.965 140.092 412.515 144.511 417.598C149.035 422.802 152.749 428.677 157.548 433.377C163.888 439.587 168.859 445.966 174.233 451.218C179.363 456.233 182.667 461.745 186.321 465.69C190.354 469.263 194.174 473.016 197.828 477.896C198.788 479.035 199.928 479.778 202.252 481.672" stroke="black" stroke-width="8" stroke-linecap="round" stroke-linejoin="round"/>
<path d="M42.252 229.672C43.786 233.039 47.6038 239.019 56.6004 251.727C62.8648 260.576 76.2083 276.271 83.446 285.06C91.6902 295.072 95.2857 299.086 99.3169 304.148C102.001 307.518 114.421 322.622 131.716 344.576C140.739 356.029 147.166 363.253 156.018 374.148C165.513 385.834 180.154 400.708 189.865 411.89C198.235 421.528 202.553 426.339 206.982 431.232C210.883 435.542 217.524 443.951 223.13 449.441C227.016 453.247 229.473 458.253 232.553 463.884C235.633 469.525 237.939 472.904 239.664 474.965C240.627 475.911 241.769 476.654 245.252 479.672" stroke="black" stroke-width="8" stroke-linecap="round" stroke-linejoin="round"/>
<path d="M42.252 179.672C57.607 195.38 62.2181 201.38 73.8438 215.677C84.143 228.344 102.588 252.593 113.142 265.936C123.696 279.279 125.598 281.133 139.702 299.144C153.806 317.155 180.055 351.267 194.148 369.397C211.211 391.347 215.146 396.503 221.676 404.548C225.655 409.45 240.783 425.222 251.078 435.273C257.415 441.461 263.562 446.683 268.94 452.307C276.923 460.655 281.615 465.784 285.477 470.666C286.249 471.795 287.01 472.908 287.782 474.037C288.554 475.166 289.315 476.279 291.252 479.672" stroke="black" stroke-width="8" stroke-linecap="round" stroke-linejoin="round"/>
<path d="M34.252 109.672C38.0578 113.384 40.399 116.411 41.1659 118.655C41.9328 120.899 53.7425 137.639 71.9932 162.193C85.5609 180.445 95.7451 192.146 106.425 206.664C115.327 218.766 132.327 239.744 141.715 251.388C156.14 269.28 168.725 282.472 175.131 290.403C176.897 292.589 186.785 301.586 200.613 315.637C214.32 329.565 230.61 345.832 239.894 354.337C247.539 361.341 251.046 366.892 254.708 373.833C258.154 380.366 262.579 386.017 267.198 392.21C272.192 398.906 276.419 404.399 280.847 409.839C285.322 415.335 290.258 422.399 293.92 427.091C298.095 432.439 301.791 437.024 306.024 442.087C312.482 449.811 317.545 453.899 326.385 462.14C331.718 467.112 335.997 471.899 341.008 475.1C342.167 475.668 343.309 476.039 344.468 476.416C345.627 476.793 346.769 477.164 350.252 478.672" stroke="black" stroke-width="8" stroke-linecap="round" stroke-linejoin="round"/>
<path d="M35.252 53.6719C40.2278 62.6551 46.3555 70.1523 53.4564 78.0267C59.0792 84.262 64.4159 89.3007 70.7106 96.3871C83.172 110.416 92.8312 119.706 96.4594 122.689C109.053 133.044 121.546 144.022 131.014 153.827C143.229 166.476 150.41 173.718 158.847 184.964C168.926 198.398 188.42 215.009 194.179 221.189C199.594 227 216.317 250.829 228.158 266.589C239.89 282.205 254.811 300.519 261.181 307.498C267.554 314.482 271.743 320.061 275.774 324.952C279.322 329.256 282.109 333.952 285.374 338.461C288.776 343.157 292.084 348.204 307.023 363.373C313.008 369.45 319.704 375.581 325.682 380.489C331.415 385.196 335.853 389.112 341.416 395.484C350.334 405.697 353.913 410.501 357.363 415.009C360.452 419.047 363.496 424.009 368.109 428.332C371.941 431.923 373.494 436.392 375.792 441.272C376.938 442.775 378.838 444.632 380.388 445.775C381.937 446.918 383.077 447.289 384.252 447.672" stroke="black" stroke-width="8" stroke-linecap="round" stroke-linejoin="round"/>
<path d="M67.252 25.6719C70.6889 29.7879 74.5166 33.5215 77.965 38.2111C80.2496 41.3179 90.9195 49.2208 110.587 65.6511C121.843 75.0542 134.427 88.0192 141.64 94.8904C155.423 108.021 168.75 119.733 174.514 124.057C181.307 129.152 184.084 135.477 190.969 143.518C208.872 164.425 213.211 168.472 217.625 172.043C222.857 176.275 228.913 184.576 234.476 189.468C247.033 200.509 260.339 213.838 267.041 219.264C273.766 224.71 276.432 229.583 288.478 241.171C294.442 246.909 298.272 252.074 302.111 256.382C307.022 261.891 311.674 267.054 316.479 272.874C320.79 278.095 325.1 285.047 329.692 290.861C336.69 299.721 340.043 304.548 343.681 309.423C348.887 316.399 352.687 320.292 356.711 324.796C360.424 328.954 365.309 335.272 369.55 340.54C372.974 344.793 377.194 350.274 380.66 355.531C383.7 358.888 386.033 361.913 386.987 364.157C387.562 365.287 388.321 366.4 390.252 368.672" stroke="black" stroke-width="8" stroke-linecap="round" stroke-linejoin="round"/>
<path d="M112.252 23.6719C124.884 26.6552 129.47 29.6386 136.935 35.4259C145.116 41.7686 157.813 50.1858 162.997 54.4982C169.816 60.1708 174.295 65.5288 182.14 74.664C189.3 83.0018 196.501 90.1809 206.633 101.554C220.41 117.018 231.764 129.817 235.971 135.044C241.866 142.367 246.706 148.884 252.643 155.428C259.598 163.096 261.648 169.072 268.159 175.992C275.224 183.5 284.245 192.625 289.049 196.567C293.207 199.979 303.347 210.144 312.221 217.686C317.559 222.224 321.416 226.653 324.875 231.145C328.151 235.399 331.392 238.991 335.978 244.413C341.249 250.646 348.242 258.057 351.69 263.104C356.679 270.406 361.253 275.621 365.104 280.494C368.482 284.77 371.23 289.461 374.299 293.953C377.747 298.445 382.333 302.92 385.982 307.227C386.942 308.169 388.08 308.909 389.252 309.672" stroke="black" stroke-width="8" stroke-linecap="round" stroke-linejoin="round"/>
<path d="M186.252 29.6719C205.639 47.5247 220.196 62.1407 231.16 75.0935C241.26 87.026 261.007 109.483 271.502 121.652C285.141 137.468 289.618 142.769 295.323 149.663C306.126 162.717 315.895 168.865 331.923 184.366C338.029 190.271 343.773 194.289 348.362 199.329C355.108 206.738 358.285 211.089 362.479 215.76C367.071 220.872 370.485 225.649 373.741 231.065C376.641 235.889 380.785 240.59 384.607 244.88C385.751 246.19 387.262 247.669 388.418 248.985C389.574 250.301 390.329 251.409 392.252 253.672" stroke="black" stroke-width="8" stroke-linecap="round" stroke-linejoin="round"/>
<path d="M242.252 31.6719C259.606 47.1992 273.451 60.0043 282.957 69.5044C291.907 78.4485 302.02 88.3815 312.11 96.963C323.248 106.437 330.647 115.672 334.649 120.159C338.491 124.468 345.098 132.073 349.894 139.013C353.388 144.07 356.942 148.161 360.56 153.017C365.738 159.966 370.272 163.106 375.039 166.466C380.195 171.698 382.482 175.059 384.002 177.294C384.768 178.42 385.523 179.529 385.157 180.672" stroke="black" stroke-width="8" stroke-linecap="round" stroke-linejoin="round"/>
<path d="M319.252 36.6719C319.321 36.6719 319.389 36.6719 321.927 39.496C324.465 42.3201 329.471 47.9683 332.221 51.0141C334.971 54.0599 335.314 54.3321 338.062 57.1603C340.81 59.9886 345.953 65.3646 348.808 68.4063C352.128 71.9434 352.773 72.7574 353.634 73.6792C355.302 75.4642 356.717 78.1087 358.202 80.6111C360.702 84.8261 361.567 85.8128 362.676 87.0182C363.886 88.3319 364.825 89.4587 366.415 90.7981C367.334 91.5726 368.765 92.8901 370.326 94.5749C373.882 98.4116 374.865 99.4931 375.562 100.389C376.23 101.25 376.877 102.244 377.638 103.036C378.367 103.793 379.092 104.855 379.924 105.888C380.598 106.724 381.378 107.606 381.865 108.397C382.003 108.571 382.209 108.707 382.418 108.913C382.627 109.119 382.832 109.391 383.252 109.672" stroke="black" stroke-width="8" stroke-linecap="round" stroke-linejoin="round"/>
</svg>
