<svg width="1440" height="1024" viewBox="0 0 1440 1024" fill="none" xmlns="http://www.w3.org/2000/svg">
<g clip-path="url(#clip0_2544_75)">
<path d="M-148 580.978C90.6781 451.156 329.356 321.335 466.826 249.619C604.295 177.903 633.324 168.227 652.309 163.242C671.295 158.257 679.359 158.257 671.014 199.381C662.67 240.505 637.673 322.752 607.863 388.102C578.052 453.453 544.186 499.415 502.146 548.895C460.106 598.375 410.919 649.981 378.726 689.871C346.534 729.76 332.826 756.37 324.958 774.513C313.568 800.777 313.816 818.727 317.847 833.767C319.934 841.549 329.943 846.387 338.531 849.295C355.296 854.97 379.643 848.171 407.278 839.643C420.532 835.553 431.689 830.309 468.952 807.658C506.214 785.007 569.109 744.69 658.76 677.556C748.411 610.421 862.912 517.692 941.25 460.246C1019.59 402.8 1058.29 383.448 1086.7 370.656C1115.1 357.864 1132.04 352.22 1141.57 350.522C1151.09 348.824 1152.71 351.243 1153.14 374.663C1153.56 398.084 1152.76 442.433 1155.16 480.197C1157.57 517.961 1163.21 547.795 1169.35 571.228C1179.86 611.388 1196.64 642.724 1217.73 676.419C1229.68 695.511 1248.49 715.759 1267.71 734.623C1286.93 753.487 1307.09 769.613 1342.06 790.823C1377.04 812.032 1426.23 837.835 1462.45 855.159C1498.68 872.483 1520.45 880.547 1544.97 887.926C1569.49 895.305 1596.1 901.756 1623.52 908.402" stroke="white" stroke-opacity="0.05" stroke-width="200" stroke-linecap="round"/>
</g>
<defs>
<clipPath id="clip0_2544_75">
<rect width="1440" height="1024" fill="white"/>
</clipPath>
</defs>
</svg>
