<svg width="421" height="512" viewBox="0 0 421 512" fill="none" xmlns="http://www.w3.org/2000/svg">
<g clip-path="url(#clip0_2548_140)">
<rect width="421" height="512" rx="32" fill="white"/>
<path d="M86.5998 274V234.408H93.5998V251.32H112.08V234.408H119.024V274H112.08V257.704H93.5998V274H86.5998ZM127.889 274V234.408H155.833V240.792H134.889V251.208H153.089V257.48H134.889V267.616H155.833V274H127.889ZM158.306 274L173.482 234.408H181.826L196.946 274H189.386L186.754 266.664H168.498L165.81 274H158.306ZM170.738 260.336H184.458L177.626 241.464L170.738 260.336ZM201.608 274V234.408H208.608V267.616H229.216V274H201.608ZM240.745 274V240.792H228.369V234.408H260.065V240.792H247.689V274H240.745ZM265.045 274V234.408H272.045V251.32H290.525V234.408H297.469V274H290.525V257.704H272.045V274H265.045ZM316.862 274V259.216L302.358 234.408H310.478L320.446 252.552L330.414 234.408H338.366L323.862 259.16V274H316.862Z" fill="black"/>
<path d="M122.665 502.909C94.9635 486.224 67.2617 469.54 55.6669 461.103C44.072 452.666 49.4235 452.98 53.2821 453.457C59.3979 454.213 64.4477 455.527 77.5545 457.893C87.8643 459.754 105.457 463.722 115.482 465.982C132.863 469.902 142.354 471.429 145.869 472.226C150.819 473.347 138.92 461.604 124.02 444.023C117.402 436.215 107.288 424.916 98.1639 413.569C80.5621 391.68 71.8024 377.335 71.3111 374.936C71.1552 374.174 74.9122 377.888 93.5279 390.523C112.144 403.157 146.456 425.508 164.132 434.188C181.808 442.869 181.808 437.203 181.493 431.765C181.179 426.328 180.549 421.291 180.225 411.456C179.423 387.152 180.215 370.333 180.692 366.527C181.566 359.554 181.808 356.015 181.808 355.214C181.808 351.242 184.021 364.247 189.244 380.855C192.303 390.583 198.54 406.868 202.093 416.245C207.823 431.367 209.147 437.069 210.101 438.514C210.404 438.973 210.426 435.238 212.314 422.288C214.203 409.339 217.981 386.359 220.556 372.789C223.812 355.637 226.947 346.523 230.114 343.919C232.901 341.628 234.541 358.943 237.884 371.874C241.228 384.804 245.32 398.34 248.058 406.73C253.635 423.822 257.149 434.494 259.862 440.727C260.349 441.846 260.659 442.793 261.293 440.603C265.65 425.569 268.596 413.946 276.198 395.545C280.255 385.726 287.235 368.75 292.219 357.632C297.203 346.514 300.037 341.792 301.654 339.832C303.27 337.871 303.585 338.816 303.747 339.932C303.91 341.048 303.91 342.307 301.863 358.381C299.817 374.454 295.725 405.304 293.617 422.77C291.509 440.236 291.509 443.384 291.823 444.219C293.383 448.355 305.092 429.228 324.5 415.511C334.804 408.228 343.325 407.202 345.391 407.512C346.399 407.663 346.511 409.711 346.044 411.466C345.006 415.363 332.947 429.018 317.212 447.929C310.315 456.219 309.003 459.648 308.679 461.876C308.448 463.46 321.614 457.798 345.376 449.394C358.907 444.608 376.064 440.675 385.608 438.09C395.152 435.505 396.726 434.875 397.222 435.023C398.276 435.337 394.866 438.347 390.435 443.088C382.59 451.482 376.436 460.908 364.116 471.339C354.629 478.937 338.575 491.213 329.36 498.482C320.145 505.751 318.256 507.64 315.357 509.586" stroke="black" stroke-width="8" stroke-linecap="round"/>
<path d="M121.003 18.06C120.582 18.06 120.161 18.06 108.996 28.7977C97.8309 39.5353 75.9345 61.0107 66.3388 71.4421C56.7432 81.8735 60.1119 80.6103 69.4268 77.0119C78.7417 73.4136 93.9008 67.5184 106.131 63.2182C118.362 58.918 127.205 56.3915 131.339 55.9321C145.3 54.381 108.269 94.5699 102.099 104.791C99.1058 109.75 94.2453 118.38 89.977 125.839C89.1651 127.257 92.4461 124.454 106.808 113.251C121.169 102.047 146.855 82.6774 160.93 71.8568C176.879 59.5952 179.266 56.3532 180.753 55.2814C181.298 54.8882 181.818 57.1571 182.667 73.3944C183.515 89.6317 184.779 120.371 185.64 134.943C186.501 149.515 186.922 146.989 187.981 143.371C190.424 135.028 192.881 126.981 196.677 113.034C199.594 102.32 206.369 84.7701 210.254 76.291C214.14 67.8118 215.403 69.0751 217.106 73.0946C221.559 83.6012 228.138 101.32 237.478 122.113C242.037 132.261 245.134 142.063 247.08 146.421C249.026 150.778 249.447 149.515 247.769 135.39C246.091 121.264 242.301 94.3147 240.349 78.5368C238.397 62.7588 238.397 58.9691 240.713 60.3854C249.852 65.9745 256.644 79.2705 270.814 93.6448C281.017 103.995 296.353 121.494 304.59 129.545C312.827 137.597 313.248 135.913 310.728 129.992C308.208 124.071 302.733 113.965 295.703 102.443C280.767 77.9652 270.731 63.5882 270.087 60.4046C269.787 58.9223 271.548 57.642 272.83 57.4123C275.407 56.9507 278.783 59.3136 284.078 61.0043C291.827 63.4783 313.924 72.8649 340.095 80.7506C345.67 82.4306 325.766 63.2692 299.186 44.1354C289.767 37.355 289.029 35.9497 291.753 35.299C308.925 31.1971 317.05 38.0424 325.344 40.805C335.092 44.0518 345.531 45.6985 354.272 48.4611C356.209 49.0734 357.883 49.5265 358.961 49.1118C360.039 48.6971 360.46 47.4339 359.835 46.1515C356.331 38.9638 340.146 31.7389 326.914 23.6171C323.507 21.4925 319.296 18.5449 316.495 16.3948C313.694 14.2447 312.431 12.9815 309.854 11.6799" stroke="black" stroke-width="8" stroke-linecap="round"/>
</g>
<defs>
<clipPath id="clip0_2548_140">
<rect width="421" height="512" rx="32" fill="white"/>
</clipPath>
</defs>
</svg>
