<svg width="421" height="512" viewBox="0 0 421 512" fill="none" xmlns="http://www.w3.org/2000/svg">
<rect width="421" height="512" rx="32" fill="white"/>
<path d="M25.0143 99.5002C25.0143 110.65 28.1543 63.4793 26.4033 76.0914C23.3351 98.1898 26.1447 137.896 26.8909 148.498C27.4686 156.706 29.1 165.499 29.8463 180.003C30.091 184.759 31.0802 207.185 30.8363 239.687C30.7387 252.703 29.6025 259.067 29.8463 267.43C30.0062 272.915 29.6025 297.844 29.8463 336.5C29.9456 352.254 29.6025 361.681 29.8463 373C29.9859 379.483 29.6025 414.715 29.8463 445C30.0005 464.153 32.0554 477.93 34.5158 483.605C38.4374 492.649 62.0821 488.437 69.2267 489.183C75.4842 489.836 81.2921 491.392 92.1014 491.894C110.847 492.766 117.732 490.417 124.153 488.946C133.363 486.837 146.311 488.437 181.664 489.183C195.614 489.477 206.393 489.441 220.904 488.695C234.993 487.971 249.719 486.486 268.183 486.227C277.903 486.091 287.667 488.437 303.899 489.183C313.844 489.64 323.634 491.392 332.005 491.651C338.649 491.856 344.321 487.964 350.239 485.991C356.598 483.871 363.531 482.053 369.449 479.836C375.753 477.476 382.239 473.689 388.172 469.5C393.223 465.933 392.612 444.842 393.358 402.129C393.602 388.169 393.115 369.598 391.888 357.407C391.168 350.253 390.159 337.532 388.933 313.948C388.171 299.307 388.682 271.982 388.438 257.182C388.072 234.993 386.229 223.188 385.482 193.723C385.268 185.242 384.248 176.922 384.492 166.341C384.636 160.108 385.726 135.221 385.97 99.764C386.117 78.3689 388.179 63.5975 388.438 49.094C388.578 41.228 384.751 36.9843 382.542 34.5239C373.123 24.0343 358.051 29.2465 346 28.5002C338.162 28.0149 324.113 28.1034 316 26.8769C298.685 24.2591 289 26.8769 279.5 26.8769C270.86 26.8769 264 25.5 256.5 25.5C245.879 25.5 236.036 24.1727 227.887 23.4265C216.336 22.3688 196.641 21.2173 184.066 20.4711C175.83 19.9824 169.037 18.2619 141.767 18.0034C131.02 17.9014 124 18.0031 118.5 18.0031C111.195 18.0031 101.918 18.7538 96 19.5C90.0021 20.2563 86 20.471 74.5 20.4711C63 20.4712 60.5 20.4711 51 23.4265C43.9394 25.623 25.0143 23.4265 25.0143 99.5002Z" stroke="black" stroke-width="8" stroke-linejoin="round"/>
<path d="M136.148 178.459C133.077 140.575 133.542 116.963 137.157 109.99C139.512 105.446 146.434 100.41 157.782 93.7002C168.708 87.2402 189.267 83.8413 215.082 81.5143C234.689 79.7467 245.24 81.235 249.367 82.5226C258.556 85.3899 263.857 95.6782 267.999 106.282C271.036 114.057 275.74 132.29 278.866 151.256C280.779 162.862 277.354 178.366 272.428 187.744C268.589 195.054 261.84 200.147 254.339 206.36C246.303 213.017 239.097 225.465 231.332 232.47C219.767 242.903 211.7 250.287 204.432 256.268C197.778 261.743 193.58 268.935 189.942 275.908C186.251 282.983 182.193 288.575 180.882 298.651C179.243 311.247 180.61 329.934 183.969 336.675C187.017 342.792 190.943 350.102 193.797 356.843C198.187 363.056 203.353 369.246 208.527 376.747C209.574 378.569 210.086 380.105 213.717 384.79" stroke="black" stroke-width="8" stroke-linecap="round"/>
<path d="M240.09 409.612C227.803 423.947 221.985 432.867 223.529 436.218C225.47 440.431 229.727 443.727 233.853 446.31C237.593 448.65 243.673 448.396 249.871 447.628C258.87 446.513 262.305 436.017 264.904 429.803C265.439 423.078 262.336 417.385 260.017 414.802C258.722 413.754 257.186 413.242 254.052 411.164" stroke="black" stroke-width="8" stroke-linecap="round"/>
</svg>
